<svg width="18" height="18" viewBox="0 0 18 18" fill="none" xmlns="http://www.w3.org/2000/svg">
<g clip-path="url(#clip0_9_36)">
<path d="M8.99992 0.666626C9.18159 0.666626 9.35992 0.668293 9.53492 0.670793L10.0483 0.684959L10.2974 0.695793L10.7799 0.724126L11.2408 0.762459C15.2283 1.14913 16.8508 2.77163 17.2374 6.75913L17.2758 7.21996L17.3041 7.70246C17.3083 7.78413 17.3124 7.86746 17.3149 7.95163L17.3291 8.46496L17.3324 8.72996L17.3333 8.99996C17.3333 9.18163 17.3316 9.35996 17.3291 9.53496L17.3149 10.0483L17.3041 10.2975L17.2758 10.78L17.2374 11.2408C16.8508 15.2283 15.2283 16.8508 11.2408 17.2375L10.7799 17.2758L10.2974 17.3041C10.2158 17.3083 10.1324 17.3125 10.0483 17.315L9.53492 17.3291L8.99992 17.3333L8.46492 17.3291L7.95158 17.315L7.70242 17.3041L7.21992 17.2758L6.75909 17.2375C2.77159 16.8508 1.14909 15.2283 0.762419 11.2408L0.724087 10.78L0.695753 10.2975C0.691586 10.2158 0.687418 10.1325 0.684919 10.0483L0.670752 9.53496L0.666586 8.99996L0.670752 8.46496L0.684919 7.95163L0.695753 7.70246L0.724087 7.21996L0.762419 6.75913C1.14909 2.77163 2.77159 1.14913 6.75909 0.762459L7.21992 0.724126L7.70242 0.695793C7.78545 0.691739 7.86851 0.688127 7.95158 0.684959L8.46492 0.670793L8.72992 0.667459L8.99992 0.666626ZM8.48909 5.00829L8.41075 5.07746L5.07742 8.41079C5.04803 8.4397 5.021 8.47091 4.99658 8.50413L4.93742 8.59579L4.89242 8.69079L4.86325 8.77829L4.83825 8.90163L4.83325 8.99996L4.83575 9.06246L4.84992 9.16746L4.87492 9.25996L4.91159 9.35246L4.95492 9.43413L5.01659 9.52079L5.07742 9.58913L8.41075 12.9225C8.56072 13.0719 8.76195 13.1587 8.97357 13.1651C9.1852 13.1716 9.39135 13.0973 9.55015 12.9573C9.70896 12.8172 9.80851 12.622 9.82858 12.4112C9.84866 12.2005 9.78776 11.99 9.65825 11.8225L9.58909 11.7441L7.67909 9.83329H12.3333C12.5457 9.83306 12.7499 9.75173 12.9044 9.60592C13.0588 9.46011 13.1518 9.26083 13.1642 9.0488C13.1767 8.83676 13.1077 8.62798 12.9714 8.4651C12.835 8.30222 12.6417 8.19755 12.4308 8.17246L12.3333 8.16663H7.67909L9.58909 6.25579C9.73257 6.1123 9.81876 5.92138 9.83149 5.71886C9.84423 5.51634 9.78263 5.31613 9.65825 5.15579L9.58909 5.07746C9.44559 4.93398 9.25467 4.84779 9.05215 4.83505C8.84963 4.82232 8.64942 4.88392 8.48909 5.00829Z" fill="white"/>
</g>
<defs>
<clipPath id="clip0_9_36">
<rect width="18" height="18" fill="white" transform="matrix(-1 0 0 1 18 0)"/>
</clipPath>
</defs>
</svg>
