<svg width="278" height="50" viewBox="0 0 278 50" fill="none" xmlns="http://www.w3.org/2000/svg">
<mask id="path-1-outside-1_126_17" maskUnits="userSpaceOnUse" x="33" y="7" width="245" height="37" fill="black">
<rect fill="white" x="33" y="7" width="245" height="37"/>
<path d="M36.3828 40V10.7031H54.7031V15.957H42.3984V22.6172H53.9023V27.8906H42.3984V40H36.3828ZM62.1055 40H55.7969L67.4766 10.7031H73.8242L85.4844 40H79.1758L76.7734 33.7109H64.5078L62.1055 40ZM66.4805 28.4375H74.8203L70.6406 17.5781L66.4805 28.4375ZM112.75 40H106.09L99.9375 29.4141H94.3516V40H88.3359V10.7031H100.211C102.568 10.7031 104.586 11.0742 106.266 11.8164C107.945 12.5586 109.228 13.6328 110.113 15.0391C111.012 16.4323 111.461 18.1055 111.461 20.0586C111.461 22.0638 110.986 23.776 110.035 25.1953C109.098 26.6016 107.757 27.6562 106.012 28.3594L112.75 40ZM94.3516 24.6289H99.7617C101.546 24.6289 102.913 24.2578 103.863 23.5156C104.827 22.7604 105.309 21.6862 105.309 20.293C105.309 18.8997 104.827 17.832 103.863 17.0898C102.913 16.3346 101.546 15.957 99.7617 15.957H94.3516V24.6289ZM147.262 40H141.246V19.2969L133.922 35.0781H129.273L121.969 19.3555V40H115.953V10.7031H123.59L131.598 28.3984L139.605 10.7031H147.262V40ZM150.68 36.8359L153.531 32.2461C154.43 32.9753 155.296 33.5742 156.129 34.043C156.975 34.4987 157.809 34.8372 158.629 35.0586C159.449 35.2669 160.289 35.3711 161.148 35.3711C162.164 35.3711 163.043 35.2279 163.785 34.9414C164.527 34.6549 165.1 34.2448 165.504 33.7109C165.921 33.1771 166.129 32.5586 166.129 31.8555C166.129 31.0352 165.868 30.3451 165.348 29.7852C164.827 29.2253 164.143 28.737 163.297 28.3203C162.464 27.8906 161.559 27.4805 160.582 27.0898C159.632 26.6992 158.674 26.276 157.711 25.8203C156.76 25.3516 155.882 24.7982 155.074 24.1602C154.28 23.5221 153.635 22.7474 153.141 21.8359C152.659 20.9115 152.418 19.7917 152.418 18.4766C152.418 16.7578 152.848 15.2734 153.707 14.0234C154.579 12.7734 155.771 11.8099 157.281 11.1328C158.792 10.4557 160.517 10.1172 162.457 10.1172C163.824 10.1172 165.243 10.2995 166.715 10.6641C168.199 11.0286 169.677 11.582 171.148 12.3242L168.785 17.1875C167.861 16.6276 166.865 16.1849 165.797 15.8594C164.729 15.5339 163.727 15.3711 162.789 15.3711C161.943 15.3711 161.201 15.5013 160.562 15.7617C159.938 16.0221 159.449 16.3867 159.098 16.8555C158.746 17.3112 158.57 17.8516 158.57 18.4766C158.57 19.2188 158.824 19.8633 159.332 20.4102C159.84 20.944 160.497 21.4193 161.305 21.8359C162.125 22.2526 163.004 22.6693 163.941 23.0859C164.905 23.5026 165.875 23.9583 166.852 24.4531C167.841 24.9479 168.74 25.5339 169.547 26.2109C170.367 26.875 171.025 27.6758 171.52 28.6133C172.027 29.5378 172.281 30.651 172.281 31.9531C172.281 33.6719 171.826 35.1823 170.914 36.4844C170.003 37.7734 168.733 38.7826 167.105 39.5117C165.478 40.2279 163.583 40.5859 161.422 40.5859C159.443 40.5859 157.548 40.2669 155.738 39.6289C153.928 38.9909 152.242 38.0599 150.68 36.8359ZM176.07 40V10.7031H194.977V15.957H182.086V22.6172H194.176V27.8906H182.086V34.7461H195.172V40H176.07ZM226.363 40H219.449L205.758 20V40H199.742V10.7031H206.656L220.348 30.7422V10.7031H226.363V40ZM229.781 36.8359L232.633 32.2461C233.531 32.9753 234.397 33.5742 235.23 34.043C236.077 34.4987 236.91 34.8372 237.73 35.0586C238.551 35.2669 239.391 35.3711 240.25 35.3711C241.266 35.3711 242.145 35.2279 242.887 34.9414C243.629 34.6549 244.202 34.2448 244.605 33.7109C245.022 33.1771 245.23 32.5586 245.23 31.8555C245.23 31.0352 244.97 30.3451 244.449 29.7852C243.928 29.2253 243.245 28.737 242.398 28.3203C241.565 27.8906 240.66 27.4805 239.684 27.0898C238.733 26.6992 237.776 26.276 236.812 25.8203C235.862 25.3516 234.983 24.7982 234.176 24.1602C233.382 23.5221 232.737 22.7474 232.242 21.8359C231.76 20.9115 231.52 19.7917 231.52 18.4766C231.52 16.7578 231.949 15.2734 232.809 14.0234C233.681 12.7734 234.872 11.8099 236.383 11.1328C237.893 10.4557 239.618 10.1172 241.559 10.1172C242.926 10.1172 244.345 10.2995 245.816 10.6641C247.301 11.0286 248.779 11.582 250.25 12.3242L247.887 17.1875C246.962 16.6276 245.966 16.1849 244.898 15.8594C243.831 15.5339 242.828 15.3711 241.891 15.3711C241.044 15.3711 240.302 15.5013 239.664 15.7617C239.039 16.0221 238.551 16.3867 238.199 16.8555C237.848 17.3112 237.672 17.8516 237.672 18.4766C237.672 19.2188 237.926 19.8633 238.434 20.4102C238.941 20.944 239.599 21.4193 240.406 21.8359C241.227 22.2526 242.105 22.6693 243.043 23.0859C244.007 23.5026 244.977 23.9583 245.953 24.4531C246.943 24.9479 247.841 25.5339 248.648 26.2109C249.469 26.875 250.126 27.6758 250.621 28.6133C251.129 29.5378 251.383 30.651 251.383 31.9531C251.383 33.6719 250.927 35.1823 250.016 36.4844C249.104 37.7734 247.835 38.7826 246.207 39.5117C244.579 40.2279 242.685 40.5859 240.523 40.5859C238.544 40.5859 236.65 40.2669 234.84 39.6289C233.03 38.9909 231.344 38.0599 229.781 36.8359ZM255.172 40V10.7031H274.078V15.957H261.188V22.6172H273.277V27.8906H261.188V34.7461H274.273V40H255.172Z"/>
</mask>
<path d="M36.3828 40V10.7031H54.7031V15.957H42.3984V22.6172H53.9023V27.8906H42.3984V40H36.3828ZM62.1055 40H55.7969L67.4766 10.7031H73.8242L85.4844 40H79.1758L76.7734 33.7109H64.5078L62.1055 40ZM66.4805 28.4375H74.8203L70.6406 17.5781L66.4805 28.4375ZM112.75 40H106.09L99.9375 29.4141H94.3516V40H88.3359V10.7031H100.211C102.568 10.7031 104.586 11.0742 106.266 11.8164C107.945 12.5586 109.228 13.6328 110.113 15.0391C111.012 16.4323 111.461 18.1055 111.461 20.0586C111.461 22.0638 110.986 23.776 110.035 25.1953C109.098 26.6016 107.757 27.6562 106.012 28.3594L112.75 40ZM94.3516 24.6289H99.7617C101.546 24.6289 102.913 24.2578 103.863 23.5156C104.827 22.7604 105.309 21.6862 105.309 20.293C105.309 18.8997 104.827 17.832 103.863 17.0898C102.913 16.3346 101.546 15.957 99.7617 15.957H94.3516V24.6289ZM147.262 40H141.246V19.2969L133.922 35.0781H129.273L121.969 19.3555V40H115.953V10.7031H123.59L131.598 28.3984L139.605 10.7031H147.262V40ZM150.68 36.8359L153.531 32.2461C154.43 32.9753 155.296 33.5742 156.129 34.043C156.975 34.4987 157.809 34.8372 158.629 35.0586C159.449 35.2669 160.289 35.3711 161.148 35.3711C162.164 35.3711 163.043 35.2279 163.785 34.9414C164.527 34.6549 165.1 34.2448 165.504 33.7109C165.921 33.1771 166.129 32.5586 166.129 31.8555C166.129 31.0352 165.868 30.3451 165.348 29.7852C164.827 29.2253 164.143 28.737 163.297 28.3203C162.464 27.8906 161.559 27.4805 160.582 27.0898C159.632 26.6992 158.674 26.276 157.711 25.8203C156.76 25.3516 155.882 24.7982 155.074 24.1602C154.28 23.5221 153.635 22.7474 153.141 21.8359C152.659 20.9115 152.418 19.7917 152.418 18.4766C152.418 16.7578 152.848 15.2734 153.707 14.0234C154.579 12.7734 155.771 11.8099 157.281 11.1328C158.792 10.4557 160.517 10.1172 162.457 10.1172C163.824 10.1172 165.243 10.2995 166.715 10.6641C168.199 11.0286 169.677 11.582 171.148 12.3242L168.785 17.1875C167.861 16.6276 166.865 16.1849 165.797 15.8594C164.729 15.5339 163.727 15.3711 162.789 15.3711C161.943 15.3711 161.201 15.5013 160.562 15.7617C159.938 16.0221 159.449 16.3867 159.098 16.8555C158.746 17.3112 158.57 17.8516 158.57 18.4766C158.57 19.2188 158.824 19.8633 159.332 20.4102C159.84 20.944 160.497 21.4193 161.305 21.8359C162.125 22.2526 163.004 22.6693 163.941 23.0859C164.905 23.5026 165.875 23.9583 166.852 24.4531C167.841 24.9479 168.74 25.5339 169.547 26.2109C170.367 26.875 171.025 27.6758 171.52 28.6133C172.027 29.5378 172.281 30.651 172.281 31.9531C172.281 33.6719 171.826 35.1823 170.914 36.4844C170.003 37.7734 168.733 38.7826 167.105 39.5117C165.478 40.2279 163.583 40.5859 161.422 40.5859C159.443 40.5859 157.548 40.2669 155.738 39.6289C153.928 38.9909 152.242 38.0599 150.68 36.8359ZM176.07 40V10.7031H194.977V15.957H182.086V22.6172H194.176V27.8906H182.086V34.7461H195.172V40H176.07ZM226.363 40H219.449L205.758 20V40H199.742V10.7031H206.656L220.348 30.7422V10.7031H226.363V40ZM229.781 36.8359L232.633 32.2461C233.531 32.9753 234.397 33.5742 235.23 34.043C236.077 34.4987 236.91 34.8372 237.73 35.0586C238.551 35.2669 239.391 35.3711 240.25 35.3711C241.266 35.3711 242.145 35.2279 242.887 34.9414C243.629 34.6549 244.202 34.2448 244.605 33.7109C245.022 33.1771 245.23 32.5586 245.23 31.8555C245.23 31.0352 244.97 30.3451 244.449 29.7852C243.928 29.2253 243.245 28.737 242.398 28.3203C241.565 27.8906 240.66 27.4805 239.684 27.0898C238.733 26.6992 237.776 26.276 236.812 25.8203C235.862 25.3516 234.983 24.7982 234.176 24.1602C233.382 23.5221 232.737 22.7474 232.242 21.8359C231.76 20.9115 231.52 19.7917 231.52 18.4766C231.52 16.7578 231.949 15.2734 232.809 14.0234C233.681 12.7734 234.872 11.8099 236.383 11.1328C237.893 10.4557 239.618 10.1172 241.559 10.1172C242.926 10.1172 244.345 10.2995 245.816 10.6641C247.301 11.0286 248.779 11.582 250.25 12.3242L247.887 17.1875C246.962 16.6276 245.966 16.1849 244.898 15.8594C243.831 15.5339 242.828 15.3711 241.891 15.3711C241.044 15.3711 240.302 15.5013 239.664 15.7617C239.039 16.0221 238.551 16.3867 238.199 16.8555C237.848 17.3112 237.672 17.8516 237.672 18.4766C237.672 19.2188 237.926 19.8633 238.434 20.4102C238.941 20.944 239.599 21.4193 240.406 21.8359C241.227 22.2526 242.105 22.6693 243.043 23.0859C244.007 23.5026 244.977 23.9583 245.953 24.4531C246.943 24.9479 247.841 25.5339 248.648 26.2109C249.469 26.875 250.126 27.6758 250.621 28.6133C251.129 29.5378 251.383 30.651 251.383 31.9531C251.383 33.6719 250.927 35.1823 250.016 36.4844C249.104 37.7734 247.835 38.7826 246.207 39.5117C244.579 40.2279 242.685 40.5859 240.523 40.5859C238.544 40.5859 236.65 40.2669 234.84 39.6289C233.03 38.9909 231.344 38.0599 229.781 36.8359ZM255.172 40V10.7031H274.078V15.957H261.188V22.6172H273.277V27.8906H261.188V34.7461H274.273V40H255.172Z" fill="white"/>
<path d="M36.3828 40H33.3828V43H36.3828V40ZM36.3828 10.7031V7.70312H33.3828V10.7031H36.3828ZM54.7031 10.7031H57.7031V7.70312H54.7031V10.7031ZM54.7031 15.957V18.957H57.7031V15.957H54.7031ZM42.3984 15.957V12.957H39.3984V15.957H42.3984ZM42.3984 22.6172H39.3984V25.6172H42.3984V22.6172ZM53.9023 22.6172H56.9023V19.6172H53.9023V22.6172ZM53.9023 27.8906V30.8906H56.9023V27.8906H53.9023ZM42.3984 27.8906V24.8906H39.3984V27.8906H42.3984ZM42.3984 40V43H45.3984V40H42.3984ZM36.3828 40H39.3828V10.7031H36.3828H33.3828V40H36.3828ZM36.3828 10.7031V13.7031H54.7031V10.7031V7.70312H36.3828V10.7031ZM54.7031 10.7031H51.7031V15.957H54.7031H57.7031V10.7031H54.7031ZM54.7031 15.957V12.957H42.3984V15.957V18.957H54.7031V15.957ZM42.3984 15.957H39.3984V22.6172H42.3984H45.3984V15.957H42.3984ZM42.3984 22.6172V25.6172H53.9023V22.6172V19.6172H42.3984V22.6172ZM53.9023 22.6172H50.9023V27.8906H53.9023H56.9023V22.6172H53.9023ZM53.9023 27.8906V24.8906H42.3984V27.8906V30.8906H53.9023V27.8906ZM42.3984 27.8906H39.3984V40H42.3984H45.3984V27.8906H42.3984ZM42.3984 40V37H36.3828V40V43H42.3984V40ZM62.1055 40V43H64.1709L64.908 41.0705L62.1055 40ZM55.7969 40L53.0102 38.889L51.3713 43H55.7969V40ZM67.4766 10.7031V7.70312H65.4429L64.6899 9.59216L67.4766 10.7031ZM73.8242 10.7031L76.6116 9.59376L75.8591 7.70312H73.8242V10.7031ZM85.4844 40V43H89.9072L88.2717 38.8906L85.4844 40ZM79.1758 40L76.3733 41.0705L77.1103 43H79.1758V40ZM76.7734 33.7109L79.5759 32.6404L78.8389 30.7109H76.7734V33.7109ZM64.5078 33.7109V30.7109H62.4424L61.7053 32.6404L64.5078 33.7109ZM66.4805 28.4375L63.679 27.3643L62.1186 31.4375H66.4805V28.4375ZM74.8203 28.4375V31.4375H79.1895L77.6201 27.3599L74.8203 28.4375ZM70.6406 17.5781L73.4404 16.5005L70.6341 9.20928L67.8392 16.5049L70.6406 17.5781ZM62.1055 40V37H55.7969V40V43H62.1055V40ZM55.7969 40L58.5836 41.111L70.2633 11.8141L67.4766 10.7031L64.6899 9.59216L53.0102 38.889L55.7969 40ZM67.4766 10.7031V13.7031H73.8242V10.7031V7.70312H67.4766V10.7031ZM73.8242 10.7031L71.0369 11.8125L82.697 41.1094L85.4844 40L88.2717 38.8906L76.6116 9.59376L73.8242 10.7031ZM85.4844 40V37H79.1758V40V43H85.4844V40ZM79.1758 40L81.9783 38.9295L79.5759 32.6404L76.7734 33.7109L73.9709 34.7815L76.3733 41.0705L79.1758 40ZM76.7734 33.7109V30.7109H64.5078V33.7109V36.7109H76.7734V33.7109ZM64.5078 33.7109L61.7053 32.6404L59.303 38.9295L62.1055 40L64.908 41.0705L67.3103 34.7815L64.5078 33.7109ZM66.4805 28.4375V31.4375H74.8203V28.4375V25.4375H66.4805V28.4375ZM74.8203 28.4375L77.6201 27.3599L73.4404 16.5005L70.6406 17.5781L67.8408 18.6557L72.0205 29.5151L74.8203 28.4375ZM70.6406 17.5781L67.8392 16.5049L63.679 27.3643L66.4805 28.4375L69.2819 29.5107L73.4421 18.6513L70.6406 17.5781ZM112.75 40V43H117.953L115.346 38.4971L112.75 40ZM106.09 40L103.496 41.5074L104.364 43H106.09V40ZM99.9375 29.4141L102.531 27.9066L101.664 26.4141H99.9375V29.4141ZM94.3516 29.4141V26.4141H91.3516V29.4141H94.3516ZM94.3516 40V43H97.3516V40H94.3516ZM88.3359 40H85.3359V43H88.3359V40ZM88.3359 10.7031V7.70312H85.3359V10.7031H88.3359ZM110.113 15.0391L107.575 16.6375L107.583 16.6513L107.592 16.6649L110.113 15.0391ZM110.035 25.1953L107.543 23.5259L107.539 23.5312L110.035 25.1953ZM106.012 28.3594L104.89 25.5768L101.683 26.8694L103.415 29.8623L106.012 28.3594ZM94.3516 24.6289H91.3516V27.6289H94.3516V24.6289ZM103.863 23.5156L105.71 25.8802L105.714 25.8768L103.863 23.5156ZM103.863 17.0898L101.997 19.4387L102.015 19.4528L102.033 19.4665L103.863 17.0898ZM94.3516 15.957V12.957H91.3516V15.957H94.3516ZM112.75 40V37H106.09V40V43H112.75V40ZM106.09 40L108.684 38.4926L102.531 27.9066L99.9375 29.4141L97.3437 30.9215L103.496 41.5074L106.09 40ZM99.9375 29.4141V26.4141H94.3516V29.4141V32.4141H99.9375V29.4141ZM94.3516 29.4141H91.3516V40H94.3516H97.3516V29.4141H94.3516ZM94.3516 40V37H88.3359V40V43H94.3516V40ZM88.3359 40H91.3359V10.7031H88.3359H85.3359V40H88.3359ZM88.3359 10.7031V13.7031H100.211V10.7031V7.70312H88.3359V10.7031ZM100.211 10.7031V13.7031C102.264 13.7031 103.847 14.0276 105.053 14.5605L106.266 11.8164L107.478 9.07235C105.325 8.1208 102.872 7.70312 100.211 7.70312V10.7031ZM106.266 11.8164L105.053 14.5605C106.246 15.0877 107.04 15.7892 107.575 16.6375L110.113 15.0391L112.652 13.4406C111.415 11.4764 109.644 10.0295 107.478 9.07235L106.266 11.8164ZM110.113 15.0391L107.592 16.6649C108.126 17.4925 108.461 18.5777 108.461 20.0586H111.461H114.461C114.461 17.6333 113.898 15.372 112.635 13.4132L110.113 15.0391ZM111.461 20.0586H108.461C108.461 21.575 108.108 22.6816 107.543 23.5259L110.035 25.1953L112.528 26.8647C113.863 24.8705 114.461 22.5526 114.461 20.0586H111.461ZM110.035 25.1953L107.539 23.5312C106.974 24.3786 106.141 25.073 104.89 25.5768L106.012 28.3594L107.133 31.1419C109.372 30.2395 111.221 28.8245 112.531 26.8594L110.035 25.1953ZM106.012 28.3594L103.415 29.8623L110.154 41.5029L112.75 40L115.346 38.4971L108.608 26.8564L106.012 28.3594ZM94.3516 24.6289V27.6289H99.7617V24.6289V21.6289H94.3516V24.6289ZM99.7617 24.6289V27.6289C101.907 27.6289 104.032 27.1903 105.71 25.8802L103.863 23.5156L102.017 21.1511C101.794 21.3253 101.184 21.6289 99.7617 21.6289V24.6289ZM103.863 23.5156L105.714 25.8768C107.509 24.4695 108.309 22.4638 108.309 20.293H105.309H102.309C102.309 20.9086 102.144 21.0513 102.013 21.1545L103.863 23.5156ZM105.309 20.293H108.309C108.309 18.1227 107.509 16.111 105.694 14.7132L103.863 17.0898L102.033 19.4665C102.145 19.5531 102.309 19.6767 102.309 20.293H105.309ZM103.863 17.0898L105.73 14.741C104.05 13.4063 101.916 12.957 99.7617 12.957V15.957V18.957C101.175 18.957 101.776 19.263 101.997 19.4387L103.863 17.0898ZM99.7617 15.957V12.957H94.3516V15.957V18.957H99.7617V15.957ZM94.3516 15.957H91.3516V24.6289H94.3516H97.3516V15.957H94.3516ZM147.262 40V43H150.262V40H147.262ZM141.246 40H138.246V43H141.246V40ZM141.246 19.2969H144.246L138.525 18.0339L141.246 19.2969ZM133.922 35.0781V38.0781H135.837L136.643 36.3411L133.922 35.0781ZM129.273 35.0781L126.553 36.3422L127.359 38.0781H129.273V35.0781ZM121.969 19.3555L124.689 18.0914L118.969 19.3555H121.969ZM121.969 40V43H124.969V40H121.969ZM115.953 40H112.953V43H115.953V40ZM115.953 10.7031V7.70312H112.953V10.7031H115.953ZM123.59 10.7031L126.323 9.46626L125.525 7.70312H123.59V10.7031ZM131.598 28.3984L128.864 29.6353L131.598 35.6749L134.331 29.6353L131.598 28.3984ZM139.605 10.7031V7.70312H137.67L136.872 9.46626L139.605 10.7031ZM147.262 10.7031H150.262V7.70312H147.262V10.7031ZM147.262 40V37H141.246V40V43H147.262V40ZM141.246 40H144.246V19.2969H141.246H138.246V40H141.246ZM141.246 19.2969L138.525 18.0339L131.201 33.8152L133.922 35.0781L136.643 36.3411L143.967 20.5598L141.246 19.2969ZM133.922 35.0781V32.0781H129.273V35.0781V38.0781H133.922V35.0781ZM129.273 35.0781L131.994 33.8141L124.689 18.0914L121.969 19.3555L119.248 20.6195L126.553 36.3422L129.273 35.0781ZM121.969 19.3555H118.969V40H121.969H124.969V19.3555H121.969ZM121.969 40V37H115.953V40V43H121.969V40ZM115.953 40H118.953V10.7031H115.953H112.953V40H115.953ZM115.953 10.7031V13.7031H123.59V10.7031V7.70312H115.953V10.7031ZM123.59 10.7031L120.857 11.94L128.864 29.6353L131.598 28.3984L134.331 27.1616L126.323 9.46626L123.59 10.7031ZM131.598 28.3984L134.331 29.6353L142.339 11.94L139.605 10.7031L136.872 9.46626L128.864 27.1616L131.598 28.3984ZM139.605 10.7031V13.7031H147.262V10.7031V7.70312H139.605V10.7031ZM147.262 10.7031H144.262V40H147.262H150.262V10.7031H147.262ZM150.68 36.8359L148.131 35.2528L146.711 37.5383L148.83 39.1976L150.68 36.8359ZM153.531 32.2461L155.422 29.9167L152.779 27.7719L150.983 30.6629L153.531 32.2461ZM156.129 34.043L154.658 36.6577L154.682 36.6713L154.707 36.6844L156.129 34.043ZM158.629 35.0586L157.847 37.955L157.869 37.9608L157.89 37.9663L158.629 35.0586ZM163.785 34.9414L164.865 37.7402L163.785 34.9414ZM165.504 33.7109L163.139 31.8651L163.125 31.8833L163.111 31.9016L165.504 33.7109ZM165.348 29.7852L167.544 27.7418L165.348 29.7852ZM163.297 28.3203L161.922 30.9867L161.947 30.9995L161.972 31.0118L163.297 28.3203ZM160.582 27.0898L159.442 29.8647L159.455 29.87L159.468 29.8753L160.582 27.0898ZM157.711 25.8203L156.384 28.5109L156.406 28.5218L156.428 28.5323L157.711 25.8203ZM155.074 24.1602L153.195 26.499L153.205 26.5065L153.214 26.5138L155.074 24.1602ZM153.141 21.8359L150.48 23.2224L150.492 23.2449L150.504 23.2672L153.141 21.8359ZM153.707 14.0234L151.247 12.3065L151.241 12.3152L151.235 12.3239L153.707 14.0234ZM166.715 10.6641L165.993 13.576L165.999 13.5775L166.715 10.6641ZM171.148 12.3242L173.847 13.6354L175.139 10.9769L172.5 9.64569L171.148 12.3242ZM168.785 17.1875L167.231 19.7536L170.045 21.458L171.483 18.4987L168.785 17.1875ZM160.562 15.7617L159.429 12.9842L159.419 12.9883L159.409 12.9925L160.562 15.7617ZM159.098 16.8555L161.473 18.6879L161.485 18.6718L161.498 18.6555L159.098 16.8555ZM159.332 20.4102L157.134 22.4515L157.146 22.4647L157.158 22.4778L159.332 20.4102ZM161.305 21.8359L159.929 24.5018L159.937 24.5063L159.946 24.5107L161.305 21.8359ZM163.941 23.0859L162.723 25.8274L162.737 25.8335L162.751 25.8395L163.941 23.0859ZM166.852 24.4531L165.496 27.1292L165.503 27.1328L165.51 27.1364L166.852 24.4531ZM169.547 26.2109L167.619 28.5095L167.639 28.5263L167.659 28.5427L169.547 26.2109ZM171.52 28.6133L168.866 30.0136L168.878 30.0357L168.89 30.0576L171.52 28.6133ZM170.914 36.4844L173.364 38.2164L173.368 38.2106L173.372 38.2048L170.914 36.4844ZM167.105 39.5117L168.314 42.2577L168.323 42.2536L168.332 42.2495L167.105 39.5117ZM150.68 36.8359L153.228 38.4191L156.079 33.8293L153.531 32.2461L150.983 30.6629L148.131 35.2528L150.68 36.8359ZM153.531 32.2461L151.641 34.5755C152.644 35.39 153.65 36.0907 154.658 36.6577L156.129 34.043L157.6 31.4282C156.941 31.0577 156.215 30.5605 155.422 29.9167L153.531 32.2461ZM156.129 34.043L154.707 36.6844C155.73 37.2354 156.777 37.6663 157.847 37.955L158.629 35.0586L159.41 32.1622C158.84 32.0082 158.221 31.762 157.551 31.4016L156.129 34.043ZM158.629 35.0586L157.89 37.9663C158.956 38.2369 160.044 38.3711 161.148 38.3711V35.3711V32.3711C160.534 32.3711 159.943 32.297 159.367 32.1509L158.629 35.0586ZM161.148 35.3711V38.3711C162.436 38.3711 163.698 38.1908 164.865 37.7402L163.785 34.9414L162.705 32.1426C162.388 32.2649 161.892 32.3711 161.148 32.3711V35.3711ZM163.785 34.9414L164.865 37.7402C166.029 37.2909 167.097 36.5777 167.897 35.5203L165.504 33.7109L163.111 31.9016C163.103 31.9119 163.025 32.019 162.705 32.1426L163.785 34.9414ZM165.504 33.7109L167.869 35.5568C168.714 34.4743 169.129 33.1999 169.129 31.8555H166.129H163.129C163.129 31.8827 163.127 31.8968 163.126 31.8998C163.126 31.9015 163.126 31.9011 163.127 31.8989C163.127 31.8967 163.128 31.8933 163.13 31.889C163.131 31.8847 163.133 31.8802 163.135 31.8757C163.137 31.8712 163.139 31.8674 163.14 31.8644C163.144 31.8579 163.144 31.8581 163.139 31.8651L165.504 33.7109ZM166.129 31.8555H169.129C169.129 30.3373 168.621 28.8995 167.544 27.7418L165.348 29.7852L163.151 31.8285C163.156 31.834 163.153 31.831 163.145 31.8195C163.142 31.8141 163.139 31.8078 163.135 31.801C163.132 31.7941 163.129 31.7876 163.127 31.7818C163.122 31.7696 163.122 31.7658 163.124 31.7744C163.125 31.7835 163.129 31.8093 163.129 31.8555H166.129ZM165.348 29.7852L167.544 27.7418C166.724 26.8603 165.722 26.1703 164.622 25.6288L163.297 28.3203L161.972 31.0118C162.565 31.3036 162.929 31.5902 163.151 31.8285L165.348 29.7852ZM163.297 28.3203L164.672 25.6539C163.744 25.1755 162.751 24.7263 161.696 24.3044L160.582 27.0898L159.468 29.8753C160.366 30.2346 161.183 30.6057 161.922 30.9867L163.297 28.3203ZM160.582 27.0898L161.722 24.315C160.822 23.9448 159.912 23.5427 158.994 23.1084L157.711 25.8203L156.428 28.5323C157.437 29.0094 158.441 29.4536 159.442 29.8647L160.582 27.0898ZM157.711 25.8203L159.038 23.1297C158.271 22.7514 157.571 22.3099 156.934 21.8065L155.074 24.1602L153.214 26.5138C154.192 27.2865 155.25 27.9517 156.384 28.5109L157.711 25.8203ZM155.074 24.1602L156.953 21.8213C156.475 21.4371 156.086 20.9728 155.777 20.4047L153.141 21.8359L150.504 23.2672C151.185 24.522 152.085 25.6072 153.195 26.499L155.074 24.1602ZM153.141 21.8359L155.801 20.4495C155.593 20.0505 155.418 19.4323 155.418 18.4766H152.418H149.418C149.418 20.1511 149.725 21.7724 150.48 23.2224L153.141 21.8359ZM152.418 18.4766H155.418C155.418 17.281 155.708 16.4082 156.179 15.723L153.707 14.0234L151.235 12.3239C149.987 14.1387 149.418 16.2346 149.418 18.4766H152.418ZM153.707 14.0234L156.167 15.7404C156.702 14.9739 157.45 14.3449 158.508 13.8703L157.281 11.1328L156.054 8.39528C154.092 9.27489 152.457 10.5729 151.247 12.3065L153.707 14.0234ZM157.281 11.1328L158.508 13.8703C159.572 13.3935 160.868 13.1172 162.457 13.1172V10.1172V7.11719C160.166 7.11719 158.011 7.51795 156.054 8.39528L157.281 11.1328ZM162.457 10.1172V13.1172C163.556 13.1172 164.733 13.2637 165.993 13.576L166.715 10.6641L167.436 7.75213C165.754 7.33531 164.092 7.11719 162.457 7.11719V10.1172ZM166.715 10.6641L165.999 13.5775C167.247 13.884 168.513 14.3547 169.797 15.0027L171.148 12.3242L172.5 9.64569C170.842 8.80936 169.151 8.17331 167.43 7.75065L166.715 10.6641ZM171.148 12.3242L168.45 11.013L166.087 15.8763L168.785 17.1875L171.483 18.4987L173.847 13.6354L171.148 12.3242ZM168.785 17.1875L170.339 14.6214C169.195 13.9284 167.97 13.3855 166.672 12.9898L165.797 15.8594L164.922 18.729C165.759 18.9843 166.526 19.3268 167.231 19.7536L168.785 17.1875ZM165.797 15.8594L166.672 12.9898C165.373 12.5938 164.073 12.3711 162.789 12.3711V15.3711V18.3711C163.38 18.3711 164.086 18.4739 164.922 18.729L165.797 15.8594ZM162.789 15.3711V12.3711C161.64 12.3711 160.499 12.5475 159.429 12.9842L160.562 15.7617L161.696 18.5393C161.902 18.4551 162.245 18.3711 162.789 18.3711V15.3711ZM160.562 15.7617L159.409 12.9925C158.367 13.4264 157.418 14.0953 156.698 15.0555L159.098 16.8555L161.498 18.6555C161.495 18.6593 161.499 18.6521 161.522 18.6343C161.548 18.615 161.607 18.5766 161.716 18.5309L160.562 15.7617ZM159.098 16.8555L156.722 15.0231C155.93 16.0498 155.57 17.249 155.57 18.4766H158.57H161.57C161.57 18.4479 161.574 18.4727 161.555 18.5306C161.535 18.5912 161.504 18.6474 161.473 18.6879L159.098 16.8555ZM158.57 18.4766H155.57C155.57 19.9806 156.114 21.3531 157.134 22.4515L159.332 20.4102L161.53 18.3688C161.519 18.3565 161.52 18.3552 161.526 18.3657C161.533 18.3766 161.543 18.3942 161.552 18.417C161.561 18.4399 161.566 18.4601 161.569 18.4746C161.571 18.4886 161.57 18.4904 161.57 18.4766H158.57ZM159.332 20.4102L157.158 22.4778C157.943 23.3031 158.891 23.966 159.929 24.5018L161.305 21.8359L162.681 19.1701C162.104 18.8725 161.736 18.5849 161.506 18.3425L159.332 20.4102ZM161.305 21.8359L159.946 24.5107C160.817 24.9533 161.743 25.392 162.723 25.8274L163.941 23.0859L165.16 20.3445C164.264 19.9465 163.433 19.5519 162.663 19.1612L161.305 21.8359ZM163.941 23.0859L162.751 25.8395C163.656 26.231 164.571 26.6608 165.496 27.1292L166.852 24.4531L168.207 21.777C167.179 21.2559 166.154 20.7742 165.132 20.3324L163.941 23.0859ZM166.852 24.4531L165.51 27.1364C166.3 27.5316 167 27.9905 167.619 28.5095L169.547 26.2109L171.475 23.9124C170.479 23.0772 169.382 22.3643 168.193 21.7698L166.852 24.4531ZM169.547 26.2109L167.659 28.5427C168.163 28.9501 168.56 29.4335 168.866 30.0136L171.52 28.6133L174.173 27.213C173.489 25.918 172.572 24.7999 171.434 23.8792L169.547 26.2109ZM171.52 28.6133L168.89 30.0576C169.104 30.4472 169.281 31.039 169.281 31.9531H172.281H175.281C175.281 30.2631 174.951 28.6283 174.149 27.1689L171.52 28.6133ZM172.281 31.9531H169.281C169.281 33.1091 168.986 34.0077 168.456 34.764L170.914 36.4844L173.372 38.2048C174.665 36.3569 175.281 34.2347 175.281 31.9531H172.281ZM170.914 36.4844L168.465 34.7524C167.902 35.548 167.081 36.2353 165.879 36.7739L167.105 39.5117L168.332 42.2495C170.385 41.3298 172.103 39.9989 173.364 38.2164L170.914 36.4844ZM167.105 39.5117L165.897 36.7658C164.723 37.2824 163.255 37.5859 161.422 37.5859V40.5859V43.5859C163.912 43.5859 166.233 43.1734 168.314 42.2577L167.105 39.5117ZM161.422 40.5859V37.5859C159.772 37.5859 158.215 37.3211 156.736 36.7996L155.738 39.6289L154.741 42.4583C156.881 43.2128 159.114 43.5859 161.422 43.5859V40.5859ZM155.738 39.6289L156.736 36.7996C155.244 36.2737 153.844 35.504 152.53 34.4743L150.68 36.8359L148.83 39.1976C150.64 40.6158 152.613 41.7081 154.741 42.4583L155.738 39.6289ZM176.07 40H173.07V43H176.07V40ZM176.07 10.7031V7.70312H173.07V10.7031H176.07ZM194.977 10.7031H197.977V7.70312H194.977V10.7031ZM194.977 15.957V18.957H197.977V15.957H194.977ZM182.086 15.957V12.957H179.086V15.957H182.086ZM182.086 22.6172H179.086V25.6172H182.086V22.6172ZM194.176 22.6172H197.176V19.6172H194.176V22.6172ZM194.176 27.8906V30.8906H197.176V27.8906H194.176ZM182.086 27.8906V24.8906H179.086V27.8906H182.086ZM182.086 34.7461H179.086V37.7461H182.086V34.7461ZM195.172 34.7461H198.172V31.7461H195.172V34.7461ZM195.172 40V43H198.172V40H195.172ZM176.07 40H179.07V10.7031H176.07H173.07V40H176.07ZM176.07 10.7031V13.7031H194.977V10.7031V7.70312H176.07V10.7031ZM194.977 10.7031H191.977V15.957H194.977H197.977V10.7031H194.977ZM194.977 15.957V12.957H182.086V15.957V18.957H194.977V15.957ZM182.086 15.957H179.086V22.6172H182.086H185.086V15.957H182.086ZM182.086 22.6172V25.6172H194.176V22.6172V19.6172H182.086V22.6172ZM194.176 22.6172H191.176V27.8906H194.176H197.176V22.6172H194.176ZM194.176 27.8906V24.8906H182.086V27.8906V30.8906H194.176V27.8906ZM182.086 27.8906H179.086V34.7461H182.086H185.086V27.8906H182.086ZM182.086 34.7461V37.7461H195.172V34.7461V31.7461H182.086V34.7461ZM195.172 34.7461H192.172V40H195.172H198.172V34.7461H195.172ZM195.172 40V37H176.07V40V43H195.172V40ZM226.363 40V43H229.363V40H226.363ZM219.449 40L216.974 41.6947L217.867 43H219.449V40ZM205.758 20L208.233 18.3053L202.758 10.3069V20H205.758ZM205.758 40V43H208.758V40H205.758ZM199.742 40H196.742V43H199.742V40ZM199.742 10.7031V7.70312H196.742V10.7031H199.742ZM206.656 10.7031L209.133 9.01072L208.24 7.70312H206.656V10.7031ZM220.348 30.7422L217.871 32.4346L223.348 40.4509V30.7422H220.348ZM220.348 10.7031V7.70312H217.348V10.7031H220.348ZM226.363 10.7031H229.363V7.70312H226.363V10.7031ZM226.363 40V37H219.449V40V43H226.363V40ZM219.449 40L221.925 38.3053L208.233 18.3053L205.758 20L203.282 21.6947L216.974 41.6947L219.449 40ZM205.758 20H202.758V40H205.758H208.758V20H205.758ZM205.758 40V37H199.742V40V43H205.758V40ZM199.742 40H202.742V10.7031H199.742H196.742V40H199.742ZM199.742 10.7031V13.7031H206.656V10.7031V7.70312H199.742V10.7031ZM206.656 10.7031L204.179 12.3955L217.871 32.4346L220.348 30.7422L222.825 29.0498L209.133 9.01072L206.656 10.7031ZM220.348 30.7422H223.348V10.7031H220.348H217.348V30.7422H220.348ZM220.348 10.7031V13.7031H226.363V10.7031V7.70312H220.348V10.7031ZM226.363 10.7031H223.363V40H226.363H229.363V10.7031H226.363ZM229.781 36.8359L227.233 35.2528L225.813 37.5383L227.931 39.1976L229.781 36.8359ZM232.633 32.2461L234.523 29.9167L231.881 27.7719L230.085 30.6629L232.633 32.2461ZM235.23 34.043L233.76 36.6577L233.784 36.6713L233.808 36.6844L235.23 34.043ZM237.73 35.0586L236.949 37.955L236.97 37.9608L236.992 37.9663L237.73 35.0586ZM242.887 34.9414L243.967 37.7402L242.887 34.9414ZM244.605 33.7109L242.241 31.8651L242.226 31.8833L242.212 31.9016L244.605 33.7109ZM244.449 29.7852L246.646 27.7418L244.449 29.7852ZM242.398 28.3203L241.024 30.9867L241.048 30.9995L241.073 31.0118L242.398 28.3203ZM239.684 27.0898L238.543 29.8647L238.556 29.87L238.569 29.8753L239.684 27.0898ZM236.812 25.8203L235.486 28.5109L235.508 28.5218L235.53 28.5323L236.812 25.8203ZM234.176 24.1602L232.297 26.499L232.306 26.5065L232.316 26.5138L234.176 24.1602ZM232.242 21.8359L229.582 23.2224L229.594 23.2449L229.606 23.2672L232.242 21.8359ZM232.809 14.0234L230.348 12.3065L230.342 12.3152L230.336 12.3239L232.809 14.0234ZM245.816 10.6641L245.095 13.576L245.101 13.5775L245.816 10.6641ZM250.25 12.3242L252.948 13.6354L254.24 10.9769L251.601 9.64569L250.25 12.3242ZM247.887 17.1875L246.333 19.7536L249.147 21.458L250.585 18.4987L247.887 17.1875ZM239.664 15.7617L238.53 12.9842L238.52 12.9883L238.51 12.9925L239.664 15.7617ZM238.199 16.8555L240.575 18.6879L240.587 18.6718L240.599 18.6555L238.199 16.8555ZM238.434 20.4102L236.235 22.4515L236.247 22.4647L236.26 22.4778L238.434 20.4102ZM240.406 21.8359L239.03 24.5018L239.039 24.5063L239.048 24.5107L240.406 21.8359ZM243.043 23.0859L241.825 25.8274L241.838 25.8335L241.852 25.8395L243.043 23.0859ZM245.953 24.4531L244.597 27.1292L244.604 27.1328L244.611 27.1364L245.953 24.4531ZM248.648 26.2109L246.721 28.5095L246.741 28.5263L246.761 28.5427L248.648 26.2109ZM250.621 28.6133L247.968 30.0136L247.98 30.0357L247.992 30.0576L250.621 28.6133ZM250.016 36.4844L252.465 38.2164L252.469 38.2106L252.473 38.2048L250.016 36.4844ZM246.207 39.5117L247.415 42.2577L247.424 42.2536L247.434 42.2495L246.207 39.5117ZM229.781 36.8359L232.329 38.4191L235.181 33.8293L232.633 32.2461L230.085 30.6629L227.233 35.2528L229.781 36.8359ZM232.633 32.2461L230.742 34.5755C231.746 35.39 232.752 36.0907 233.76 36.6577L235.23 34.043L236.701 31.4282C236.043 31.0577 235.317 30.5605 234.523 29.9167L232.633 32.2461ZM235.23 34.043L233.808 36.6844C234.832 37.2354 235.879 37.6663 236.949 37.955L237.73 35.0586L238.512 32.1622C237.941 32.0082 237.322 31.762 236.653 31.4016L235.23 34.043ZM237.73 35.0586L236.992 37.9663C238.057 38.2369 239.145 38.3711 240.25 38.3711V35.3711V32.3711C239.636 32.3711 239.044 32.297 238.469 32.1509L237.73 35.0586ZM240.25 35.3711V38.3711C241.537 38.3711 242.799 38.1908 243.967 37.7402L242.887 34.9414L241.806 32.1426C241.49 32.2649 240.994 32.3711 240.25 32.3711V35.3711ZM242.887 34.9414L243.967 37.7402C245.131 37.2909 246.199 36.5777 246.998 35.5203L244.605 33.7109L242.212 31.9016C242.205 31.9119 242.127 32.019 241.806 32.1426L242.887 34.9414ZM244.605 33.7109L246.97 35.5568C247.815 34.4743 248.23 33.1999 248.23 31.8555H245.23H242.23C242.23 31.8827 242.228 31.8968 242.228 31.8998C242.228 31.9015 242.228 31.9011 242.228 31.8989C242.229 31.8967 242.23 31.8933 242.231 31.889C242.233 31.8847 242.234 31.8802 242.236 31.8757C242.238 31.8712 242.24 31.8674 242.242 31.8644C242.245 31.8579 242.246 31.8581 242.241 31.8651L244.605 33.7109ZM245.23 31.8555H248.23C248.23 30.3373 247.723 28.8995 246.646 27.7418L244.449 29.7852L242.253 31.8285C242.258 31.834 242.254 31.831 242.247 31.8195C242.244 31.8141 242.24 31.8078 242.237 31.801C242.233 31.7941 242.231 31.7876 242.228 31.7818C242.224 31.7696 242.224 31.7658 242.225 31.7744C242.227 31.7835 242.23 31.8093 242.23 31.8555H245.23ZM244.449 29.7852L246.646 27.7418C245.826 26.8603 244.823 26.1703 243.723 25.6288L242.398 28.3203L241.073 31.0118C241.666 31.3036 242.031 31.5902 242.253 31.8285L244.449 29.7852ZM242.398 28.3203L243.773 25.6539C242.846 25.1755 241.853 24.7263 240.798 24.3044L239.684 27.0898L238.569 29.8753C239.468 30.2346 240.285 30.6057 241.024 30.9867L242.398 28.3203ZM239.684 27.0898L240.824 24.315C239.923 23.9448 239.014 23.5427 238.095 23.1084L236.812 25.8203L235.53 28.5323C236.539 29.0094 237.543 29.4536 238.543 29.8647L239.684 27.0898ZM236.812 25.8203L238.139 23.1297C237.372 22.7514 236.673 22.3099 236.036 21.8065L234.176 24.1602L232.316 26.5138C233.293 27.2865 234.352 27.9517 235.486 28.5109L236.812 25.8203ZM234.176 24.1602L236.055 21.8213C235.576 21.4371 235.187 20.9728 234.879 20.4047L232.242 21.8359L229.606 23.2672C230.287 24.522 231.187 25.6072 232.297 26.499L234.176 24.1602ZM232.242 21.8359L234.903 20.4495C234.695 20.0505 234.52 19.4323 234.52 18.4766H231.52H228.52C228.52 20.1511 228.826 21.7724 229.582 23.2224L232.242 21.8359ZM231.52 18.4766H234.52C234.52 17.281 234.81 16.4082 235.281 15.723L232.809 14.0234L230.336 12.3239C229.089 14.1387 228.52 16.2346 228.52 18.4766H231.52ZM232.809 14.0234L235.269 15.7404C235.804 14.9739 236.551 14.3449 237.61 13.8703L236.383 11.1328L235.156 8.39528C233.193 9.27489 231.558 10.5729 230.348 12.3065L232.809 14.0234ZM236.383 11.1328L237.61 13.8703C238.674 13.3935 239.969 13.1172 241.559 13.1172V10.1172V7.11719C239.268 7.11719 237.113 7.51795 235.156 8.39528L236.383 11.1328ZM241.559 10.1172V13.1172C242.658 13.1172 243.834 13.2637 245.095 13.576L245.816 10.6641L246.538 7.75213C244.856 7.33531 243.194 7.11719 241.559 7.11719V10.1172ZM245.816 10.6641L245.101 13.5775C246.349 13.884 247.614 14.3547 248.899 15.0027L250.25 12.3242L251.601 9.64569C249.943 8.80936 248.253 8.17331 246.532 7.75065L245.816 10.6641ZM250.25 12.3242L247.552 11.013L245.188 15.8763L247.887 17.1875L250.585 18.4987L252.948 13.6354L250.25 12.3242ZM247.887 17.1875L249.441 14.6214C248.297 13.9284 247.071 13.3855 245.773 12.9898L244.898 15.8594L244.024 18.729C244.861 18.9843 245.628 19.3268 246.333 19.7536L247.887 17.1875ZM244.898 15.8594L245.773 12.9898C244.474 12.5938 243.175 12.3711 241.891 12.3711V15.3711V18.3711C242.481 18.3711 243.187 18.4739 244.024 18.729L244.898 15.8594ZM241.891 15.3711V12.3711C240.742 12.3711 239.6 12.5475 238.53 12.9842L239.664 15.7617L240.798 18.5393C241.004 18.4551 241.347 18.3711 241.891 18.3711V15.3711ZM239.664 15.7617L238.51 12.9925C237.469 13.4264 236.519 14.0953 235.799 15.0555L238.199 16.8555L240.599 18.6555C240.596 18.6593 240.6 18.6521 240.624 18.6343C240.65 18.615 240.708 18.5766 240.818 18.5309L239.664 15.7617ZM238.199 16.8555L235.824 15.0231C235.032 16.0498 234.672 17.249 234.672 18.4766H237.672H240.672C240.672 18.4479 240.675 18.4727 240.657 18.5306C240.637 18.5912 240.606 18.6474 240.575 18.6879L238.199 16.8555ZM237.672 18.4766H234.672C234.672 19.9806 235.215 21.3531 236.235 22.4515L238.434 20.4102L240.632 18.3688C240.621 18.3565 240.621 18.3552 240.628 18.3657C240.635 18.3766 240.645 18.3942 240.654 18.417C240.663 18.4399 240.668 18.4601 240.67 18.4746C240.673 18.4886 240.672 18.4904 240.672 18.4766H237.672ZM238.434 20.4102L236.26 22.4778C237.045 23.3031 237.992 23.966 239.03 24.5018L240.406 21.8359L241.782 19.1701C241.206 18.8725 240.838 18.5849 240.607 18.3425L238.434 20.4102ZM240.406 21.8359L239.048 24.5107C239.919 24.9533 240.845 25.392 241.825 25.8274L243.043 23.0859L244.261 20.3445C243.366 19.9465 242.534 19.5519 241.765 19.1612L240.406 21.8359ZM243.043 23.0859L241.852 25.8395C242.758 26.231 243.673 26.6608 244.597 27.1292L245.953 24.4531L247.309 21.777C246.281 21.2559 245.255 20.7742 244.234 20.3324L243.043 23.0859ZM245.953 24.4531L244.611 27.1364C245.402 27.5316 246.102 27.9905 246.721 28.5095L248.648 26.2109L250.576 23.9124C249.581 23.0772 248.484 22.3643 247.295 21.7698L245.953 24.4531ZM248.648 26.2109L246.761 28.5427C247.264 28.9501 247.662 29.4335 247.968 30.0136L250.621 28.6133L253.274 27.213C252.591 25.918 251.673 24.7999 250.536 23.8792L248.648 26.2109ZM250.621 28.6133L247.992 30.0576C248.206 30.4472 248.383 31.039 248.383 31.9531H251.383H254.383C254.383 30.2631 254.052 28.6283 253.251 27.1689L250.621 28.6133ZM251.383 31.9531H248.383C248.383 33.1091 248.087 34.0077 247.558 34.764L250.016 36.4844L252.473 38.2048C253.767 36.3569 254.383 34.2347 254.383 31.9531H251.383ZM250.016 36.4844L247.566 34.7524C247.004 35.548 246.183 36.2353 244.98 36.7739L246.207 39.5117L247.434 42.2495C249.487 41.3298 251.205 39.9989 252.465 38.2164L250.016 36.4844ZM246.207 39.5117L244.999 36.7658C243.825 37.2824 242.357 37.5859 240.523 37.5859V40.5859V43.5859C243.013 43.5859 245.334 43.1734 247.415 42.2577L246.207 39.5117ZM240.523 40.5859V37.5859C238.873 37.5859 237.317 37.3211 235.837 36.7996L234.84 39.6289L233.842 42.4583C235.983 43.2128 238.215 43.5859 240.523 43.5859V40.5859ZM234.84 39.6289L235.837 36.7996C234.346 36.2737 232.946 35.504 231.631 34.4743L229.781 36.8359L227.931 39.1976C229.742 40.6158 231.714 41.7081 233.842 42.4583L234.84 39.6289ZM255.172 40H252.172V43H255.172V40ZM255.172 10.7031V7.70312H252.172V10.7031H255.172ZM274.078 10.7031H277.078V7.70312H274.078V10.7031ZM274.078 15.957V18.957H277.078V15.957H274.078ZM261.188 15.957V12.957H258.188V15.957H261.188ZM261.188 22.6172H258.188V25.6172H261.188V22.6172ZM273.277 22.6172H276.277V19.6172H273.277V22.6172ZM273.277 27.8906V30.8906H276.277V27.8906H273.277ZM261.188 27.8906V24.8906H258.188V27.8906H261.188ZM261.188 34.7461H258.188V37.7461H261.188V34.7461ZM274.273 34.7461H277.273V31.7461H274.273V34.7461ZM274.273 40V43H277.273V40H274.273ZM255.172 40H258.172V10.7031H255.172H252.172V40H255.172ZM255.172 10.7031V13.7031H274.078V10.7031V7.70312H255.172V10.7031ZM274.078 10.7031H271.078V15.957H274.078H277.078V10.7031H274.078ZM274.078 15.957V12.957H261.188V15.957V18.957H274.078V15.957ZM261.188 15.957H258.188V22.6172H261.188H264.188V15.957H261.188ZM261.188 22.6172V25.6172H273.277V22.6172V19.6172H261.188V22.6172ZM273.277 22.6172H270.277V27.8906H273.277H276.277V22.6172H273.277ZM273.277 27.8906V24.8906H261.188V27.8906V30.8906H273.277V27.8906ZM261.188 27.8906H258.188V34.7461H261.188H264.188V27.8906H261.188ZM261.188 34.7461V37.7461H274.273V34.7461V31.7461H261.188V34.7461ZM274.273 34.7461H271.273V40H274.273H277.273V34.7461H274.273ZM274.273 40V37H255.172V40V43H274.273V40Z" fill="#025464" mask="url(#path-1-outside-1_126_17)"/>
<path d="M13 12C20.1797 12 26 17.8203 26 25C26 32.1797 20.1797 38 13 38C5.8203 38 0 32.1797 0 25C0 17.8203 5.8203 12 13 12ZM13 14.0801C6.96905 14.0801 2.08008 18.9691 2.08008 25C2.08008 31.0309 6.96905 35.9199 13 35.9199C19.0309 35.9199 23.9199 31.0309 23.9199 25C23.9199 18.9691 19.0309 14.0801 13 14.0801ZM13 17.2002C17.3078 17.2002 20.7998 20.6922 20.7998 25C20.7998 29.3078 17.3078 32.7998 13 32.7998C8.69218 32.7998 5.2002 29.3078 5.2002 25C5.2002 20.6922 8.69218 17.2002 13 17.2002Z" fill="white"/>
</svg>
